<svg width="20" height="18" viewBox="0 0 20 18" fill="none" xmlns="http://www.w3.org/2000/svg">
<path id="Vector" d="M19.4753 15.3206L14.1651 10.7363C15.7696 7.79464 15.1584 4.03164 12.5224 1.75856C9.48522 -0.85835 4.90086 -0.514522 2.28395 2.52262C-0.332959 5.55976 0.0108686 10.1441 3.04801 12.761C4.51883 14.0217 6.39078 14.6521 8.32003 14.4993C9.06499 14.442 9.77175 14.2701 10.4594 14.0217C11.0707 13.7734 11.6437 13.4487 12.1594 13.0476L17.4697 17.6319C17.909 18.014 18.5202 18.0904 19.036 17.8993C19.2652 17.8038 19.4562 17.6701 19.6281 17.4791C20.1821 16.8297 20.1057 15.8555 19.4753 15.3206ZM8.09081 11.4621C6.96382 11.5385 5.89414 11.1947 5.03457 10.4498C3.27723 8.94073 3.08621 6.26652 4.59523 4.50918C5.05367 3.97434 5.62672 3.59231 6.23797 3.34399C7.65148 2.79004 9.31331 3.01926 10.5358 4.06984C12.2931 5.57886 12.4842 8.25308 10.9751 10.0104C10.2302 10.8509 9.2178 11.3666 8.09081 11.4621Z" fill="#35A7FF"/>
</svg>
